<?xml version="1.0" encoding="utf-8"?>
<!-- Generator: Adobe Illustrator 22.0.1, SVG Export Plug-In . SVG Version: 6.00 Build 0)  -->
<!DOCTYPE svg PUBLIC "-//W3C//DTD SVG 1.1//EN" "http://www.w3.org/Graphics/SVG/1.1/DTD/svg11.dtd">
<svg version="1.1" xmlns="http://www.w3.org/2000/svg" xmlns:xlink="http://www.w3.org/1999/xlink" x="0px" y="0px"
	 viewBox="0 0 833.9 367.6" style="enable-background:new 0 0 833.9 367.6;" xml:space="preserve">
<style type="text/css">
	.st0{fill:#FFFFFF;}
</style>
<g id="ARTE">
	<g>
		<g>
			<path class="st0" d="M62.5,77.9c-10.4,0-17.2,0.5-22.5,1.2c0,0,0,0,0,0c-12.9,1.8-22.5,25.1-17.2,30.2c1.8,1,4.5,1,8.5,0.2
				c6.3-1.3,17.7-2.9,33.1-2.9c22.4,0,37.2,4.6,37.2,24.7v15.9H66.9c-39.4,0-64.4,12.7-64.4,49.1c0,34.4,23,50,64.1,50
				c46.7,0,67.2-16.3,67.2-52v-63C133.8,90.5,105.1,77.9,62.5,77.9z M101.6,192.6c0,22.1-15.1,25.3-35.7,25.3
				c-16.1,0-30.9-3.2-30.9-22.4c0-16.6,10.4-23.1,31.9-23.1h34.7V192.6z"/>
		</g>
		<g>
			<path class="st0" d="M757.7,77.9c-10.4,0-17.2,0.5-22.5,1.2c0,0,0,0,0,0c-12.9,1.8-22.5,25.1-17.2,30.2c1.8,1,4.5,1,8.5,0.2
				c6.3-1.3,17.7-2.9,33.1-2.9c22.4,0,37.2,4.6,37.2,24.7v15.9h-34.7c-39.4,0-64.4,12.7-64.4,49.1c0,34.4,23,50,64.1,50
				c46.7,0,67.2-16.3,67.2-52v-63C829,90.5,800.3,77.9,757.7,77.9z M796.9,192.6c0,22.1-15.1,25.3-35.7,25.3
				c-16.1,0-30.9-3.2-30.9-22.4c0-16.6,10.4-23.1,31.9-23.1h34.7V192.6z"/>
		</g>
		<g>
			<g>
				<path class="st0" d="M313.9,140.9c0-39.9-21.6-62.9-69.1-63v0c-0.1,0-0.1,0-0.2,0c-0.1,0-0.1,0-0.2,0v0
					c-47.5,0.1-69.1,23.2-69.1,63v79c0,12.5,10.2,22.7,22.7,22.7h5.2c2.7,0,4.9-2.2,4.9-4.9l0-96.8c0-20.4,6.7-31.8,36.4-31.8
					c29.8,0,36.4,11.4,36.4,31.8l0,79.1c0.1,10.3,7,18.9,16.4,21.7c2,0.6,4.1,0.9,6.3,0.9h5.2c2.7,0,4.9-2.2,4.9-4.9V140.9z"/>
			</g>
		</g>
		<g>
			<path class="st0" d="M392,106.5c-0.1-11.4-7.8-21-18.2-24.1c-2.2-0.7-4.6-1-7-1H361c-3,0-5.5,2.4-5.5,5.4v130.6
				c0.1,11.4,7.8,21,18.2,24.1c2.2,0.7,4.6,1,7,1h5.8c3,0,5.5-2.4,5.5-5.4V106.5z"/>
		</g>
		<path class="st0" d="M28.1,12.2V3.8c0-1.4,1.5-2.3,2.8-1.7l41.3,21.1l40.4-21c1.3-0.7,2.8,0.3,2.8,1.7v8.4c0,7.8-3.2,13-9.2,16.4
			L71.9,48.5L38.2,28.9C31.8,25.2,28.1,20.3,28.1,12.2z"/>
		<g>
			<path class="st0" d="M659.2,207.6v-66.6c0-40.6-18.5-63-64.3-63c-23.9,0-39.5,8.8-47.7,23.7c-8-14.9-23.2-23.7-47.7-23.7
				c-44.2,0-64.6,23.1-64.6,63v0.1h0l0.1,76.5c0.1,11.4,7,21,16.3,24.1c1.8,0.6,3.7,0.9,5.7,1c0.2,0,0.4,0,0.6,0h5.2
				c2.7,0,4.9-2.4,4.9-5.4v-8.9c0,0,0-0.1,0-0.1v-87.2c0-20.5,5.7-31.8,31.8-31.8c26.1,0,31.5,11.4,31.5,31.8l0,0.2l0,54.4v21.9
				c0.1,11.4,6.8,21,15.9,24.1c1.6,0.5,3.3,0.9,5.1,1c0.3,0,0.7,0,1,0h5c2.6,0,4.8-2.4,4.8-5.4v-29.6l0,0v-66.6
				c0-20.5,6-31.8,32.2-31.8c25.8,0,31.5,11.4,31.5,31.8v0.1h0l0,54.5v21.9c0.1,11.4,7,21,16.4,24.1c1.7,0.5,3.5,0.9,5.3,1
				c0.3,0,0.7,0,1,0h5.2c2.7,0,4.9-2.4,4.9-5.4L659.2,207.6L659.2,207.6z"/>
		</g>
	</g>
	<g>
		<g>
			<path class="st0" d="M184.2,328v16.1h22.4c1,0,1.5,0.5,1.5,1.4v4.3c0,1-0.5,1.6-1.5,1.6h-29c-1,0-1.6-0.5-1.6-1.5v-49.7
				c0-1,0.5-1.5,1.5-1.5h28.8c1,0,1.6,0.5,1.6,1.5v4.3c0,1-0.5,1.5-1.6,1.5h-22.1v15h21.3c0.9,0,1.4,0.5,1.4,1.6v3.9
				c0,1-0.5,1.6-1.4,1.6H184.2z"/>
		</g>
		<path class="st0" d="M267.6,304.7c-4.4-4-10.9-6-19.7-6h-13.6c-1,0-1.5,0.5-1.5,1.5v49.7c0,1,0.5,1.5,1.6,1.5h13.6
			c8.7,0,15.3-2.1,19.6-6.2c4.3-4.1,6.5-11.1,6.5-20.9C274.1,315.2,271.9,308.6,267.6,304.7z M261.4,339.7
			c-2.9,2.8-7.4,4.2-13.5,4.2h-6.7v-37.7h6.7c6.1,0,10.6,1.3,13.6,4c2.9,2.6,4.4,7.4,4.4,14.2C265.7,331.8,264.3,336.9,261.4,339.7z
			"/>
		<g>
			<path class="st0" d="M303.8,347.2c-3.4-3.4-5.1-8.3-5.1-14.6v-32.4c0-1,0.5-1.5,1.5-1.5h5.2c1,0,1.6,0.5,1.6,1.5v31.7
				c0,8.6,4,12.9,12,12.9c8,0,12.1-4.3,12.1-12.9v-31.7c0-1,0.5-1.5,1.5-1.5h5.2c0.9,0,1.4,0.5,1.4,1.5v32.4
				c0,6.3-1.7,11.2-5.1,14.6c-3.4,3.4-8.4,5.1-15.2,5.1C312.3,352.3,307.2,350.6,303.8,347.2z"/>
		</g>
		<g>
			<path class="st0" d="M399.2,342.3c0.9-0.3,1.6,0,2,0.9l1.7,3.9c0.3,0.6-0.1,1.2-1,1.7c-3.6,2.2-8.2,3.3-13.8,3.3
				c-7.6,0-13.5-2.3-17.7-7c-4.2-4.6-6.3-11.4-6.3-20.2c0-8.7,2.1-15.4,6.2-20.1c4.1-4.7,9.9-7,17.4-7c5.5,0,10,1,13.6,3.1
				c0.9,0.5,1.2,1.1,1,1.8l-1.6,3.8c-0.3,0.9-1,1.2-2,0.7c-2.9-1.4-6.1-2.1-9.7-2.1c-11,0-16.5,6.6-16.5,19.7
				c0,13.2,5.6,19.8,16.8,19.8C392.9,344.8,396.2,344,399.2,342.3z"/>
		</g>
		<path class="st0" d="M469.5,349.7l-18.2-49.5c-0.2-0.5-0.4-0.9-0.6-1.2c-0.2-0.2-0.6-0.3-1.2-0.3h-6.6c-0.6,0-1,0.1-1.3,0.3
			c-0.3,0.2-0.5,0.6-0.7,1.2l-18.2,49.5c-0.1,0.4-0.1,0.8,0.1,1.2c0.2,0.3,0.6,0.5,1.1,0.5h5.7c0.8,0,1.3-0.4,1.6-1.3l4.2-11.3h21.4
			L461,350c0.4,0.9,1,1.3,1.8,1.3h5.6c0.5,0,0.9-0.2,1.1-0.5C469.7,350.6,469.7,350.2,469.5,349.7z M437.5,331.5l8.5-24.6h0.1
			l8.5,24.6H437.5z"/>
		<g>
			<path class="st0" d="M524.2,342.3c0.9-0.3,1.6,0,2,0.9l1.7,3.9c0.3,0.6-0.1,1.2-1,1.7c-3.6,2.2-8.2,3.3-13.8,3.3H513
				c2.9,1.6,4.3,3.7,4.3,6.1c0,1.9-0.7,3.3-2.1,4.3c-1.4,1-3.4,1.5-6,1.5c-1.5,0-2.6-0.1-3.1-0.4c-0.6-0.2-0.9-0.6-0.9-1v-2.3
				c0-0.5,0.3-0.8,1-0.8h2.2c2.5,0,3.8-0.8,3.8-2.5c0-2-1.5-3.9-4.6-5.5c-5.9-1-10.4-3.8-13.6-8.3c-3.2-4.5-4.8-10.6-4.8-18.3
				c0-8.7,2.1-15.4,6.2-20.1c4.1-4.7,9.9-7,17.4-7c5.5,0,10,1,13.6,3.1c0.9,0.5,1.2,1.1,1,1.8l-1.6,3.8c-0.3,0.9-1,1.2-2,0.7
				c-2.9-1.4-6.1-2.1-9.7-2.1c-11,0-16.5,6.6-16.5,19.7c0,13.2,5.6,19.8,16.8,19.8C517.9,344.8,521.2,344,524.2,342.3z"/>
		</g>
		<g>
			<path class="st0" d="M582.5,293.6c-0.9,1.1-2.3,1.6-4.2,1.6c-1.8,0-4-0.5-6.6-1.4l-2.2-0.7c-4-1.2-6.1-1.2-6.2,0.1l-0.1,0.7
				c-0.1,0.7-0.6,1.1-1.5,1.1h-2c-0.8,0-1.3-0.6-1.3-1.8c0-1.7,0.5-3.1,1.4-4.2c0.9-1.1,2.3-1.6,4.2-1.6c1.9,0,4.1,0.5,6.6,1.4
				l2.4,0.9c1.8,0.7,3.2,1,4.2,1c1,0,1.6-0.5,1.7-1.5l0.1-0.7c0.2-0.7,0.7-1,1.6-1h1.9c0.9,0,1.3,0.6,1.3,1.9
				C583.9,291.1,583.5,292.5,582.5,293.6z"/>
			<path class="st0" d="M594.6,349.7l-18.2-49.5c-0.2-0.5-0.4-0.9-0.6-1.2c-0.2-0.2-0.6-0.3-1.2-0.3h-6.6c-0.6,0-1,0.1-1.3,0.3
				c-0.2,0.2-0.5,0.6-0.7,1.2l-18.2,49.5c-0.1,0.4-0.1,0.8,0.1,1.2c0.2,0.3,0.6,0.5,1.1,0.5h5.7c0.8,0,1.3-0.4,1.6-1.3l4.2-11.3
				h21.4L586,350c0.4,0.9,1,1.3,1.8,1.3h5.6c0.5,0,0.9-0.2,1.1-0.5C594.7,350.6,594.8,350.2,594.6,349.7z M562.6,331.5l8.5-24.6h0.1
				l8.5,24.6H562.6z"/>
		</g>
		<path class="st0" d="M654,304.9c-4-4.6-9.7-7-17-7c-7.3,0-13,2.3-17,7c-4,4.6-6,11.4-6,20.2c0,8.8,2,15.6,6,20.2
			c4,4.6,9.6,6.9,17,6.9c7.4,0,13.1-2.3,17-6.9c4-4.6,6-11.3,6-20.2C660,316.2,658,309.5,654,304.9z M637,344.9
			c-9.7,0-14.5-6.6-14.5-19.9c0-13.2,4.8-19.9,14.5-19.9c9.7,0,14.6,6.6,14.6,19.9C651.6,338.2,646.7,344.9,637,344.9z"/>
	</g>
</g>
<g id="INFO">
</g>
</svg>
